<svg xmlns="http://www.w3.org/2000/svg" style="width: 24px; height: 24px; overflow: visible; fill: rgb(3, 3, 3);" viewBox="0 0 24 24"><path fill="none" d="M0 0h24v24H0z"></path><path d="M12 6.26a3 5.74 0 1 0 0 11.48 3 5.74 0 1 0 0-11.48z"></path><path d="M9.04 16.87c-.33.08-.68.13-1.04.13-2.76 0-5-2.24-5-5s2.24-5 5-5c.36 0 .71.05 1.04.13.39-.56.88-1.12 1.49-1.63C9.75 5.19 8.9 5 8 5c-3.86 0-7 3.14-7 7s3.14 7 7 7c.9 0 1.75-.19 2.53-.5-.61-.51-1.1-1.07-1.49-1.63zM16 5c-.9 0-1.75.19-2.53.5.61.51 1.1 1.07 1.49 1.63.33-.08.68-.13 1.04-.13 2.76 0 5 2.24 5 5s-2.24 5-5 5c-.36 0-.71-.05-1.04-.13-.39.56-.88 1.12-1.49 1.63.78.31 1.63.5 2.53.5 3.86 0 7-3.14 7-7s-3.14-7-7-7z"></path></svg>